<?xml version="1.0" encoding="utf-8"?>
<svg xmlns="http://www.w3.org/2000/svg" viewBox="0 0 172.68 92.93">
	<style>
		.a { fill: #3b417f; }
	</style>
	<path class="a" d="M87.77,0H82.11c-26,.92-47.41,17.92-56.68,43.69-1.52,4.21-.46,6.5.94,4.85a20,20,0,0,1,15.23-7.48c7.1,0,13.4,4.06,17.29,10.32,2,3,2.69,3.15,4.54.08,4.7-7.8,11.33-13,22-13s16.14,4.94,21,13c1.85,3.07,2.5,2.88,4.53-.08,3.89-6.26,10.19-10.32,17.29-10.32a20.08,20.08,0,0,1,15.23,7.48c1.41,1.65,2.46-.65.94-4.85C135.15,17.94,113.8.94,87.77,0" />
	<path class="a" d="M10.51,71.76h2.13a10.27,10.27,0,0,1,4.56,1.17,4.37,4.37,0,0,0,6-1.12,0.67,0.67,0,0,0-.16-1A19.1,19.1,0,0,0,20,68.68h0a15.47,15.47,0,0,0-7.35-2H10.51C5.45,66.7,0,70.74,0,79.62v0.23c0,8.08,5.34,12.91,10.51,12.91H12.7a14.71,14.71,0,0,0,6.08-1.45h0a17.32,17.32,0,0,0,4.29-2.75,0.67,0.67,0,0,0,.16-1,4.49,4.49,0,0,0-6-1.15l-0.54.29a9.71,9.71,0,0,1-3.94,1H10.51c-3.37,0-5.46-4.08-5.46-7.86V79.62C5.05,74.92,7.25,71.76,10.51,71.76Z" />
	<path class="a" d="M58.4,67.52a0.65,0.65,0,0,0-.69-0.7,4.35,4.35,0,0,0-4.36,4.35c0,1.54,0,11.54,0,11.54,0,4.64-5.9,5-7.71,5H45.41c-1.81,0-7.71-.36-7.71-5,0,0,0-10,0-11.54a4.35,4.35,0,0,0-4.36-4.35,0.65,0.65,0,0,0-.69.7c0,3.09,0,15.19,0,15.19,0,6,5.13,10.05,12.76,10.05h0.23c7.63,0,12.76-4,12.76-10.05C58.41,82.71,58.4,70.62,58.4,67.52Z" />
	<path class="a" d="M98.81,67.22A4.35,4.35,0,0,0,93,69.37L85.93,84.83c-0.39.86-1.49,2.86-3.12,2.86-1.47,0-2.56-1.78-3.22-3.28-2.33-5.3-6.25-14.14-6.63-15a4.35,4.35,0,0,0-5.75-2.21,0.66,0.66,0,0,0-.34.92c1.77,4,6.07,13.72,8.09,18.32,2.29,5.2,5.53,6.3,7.84,6.3,3.21,0,6-2.12,7.72-5.8,2.31-5,6.81-14.83,8.62-18.79A0.65,0.65,0,0,0,98.81,67.22Z" />
	<path class="a" d="M172.68,68.35a0.65,0.65,0,0,0-.69-0.71A4.35,4.35,0,0,0,167.63,72c0,0.6,0,1.51,0,1.51v7.38c0,3.36-3.62,7-9,7H158c-2.69,0-6.58-2.8-6.58-7.86V79.75c0-4.76,2.12-7.77,5.52-7.86h4.74A4.35,4.35,0,0,0,166,67.53a0.65,0.65,0,0,0-.71-0.69c-1.86,0-8.14,0-8.52,0a9.94,9.94,0,0,0-7.56,3.71,14.35,14.35,0,0,0-2.88,9.2V80c0,7.72,6,12.91,11.63,12.91h0.66a15.78,15.78,0,0,0,9.22-3,4.4,4.4,0,0,0,4.16,3,0.65,0.65,0,0,0,.69-0.71V68.35Z" />
	<path class="a" d="M139.89,67.23a4.35,4.35,0,0,0-5.77,2.15l-1,2.16S129.6,79.21,127,84.83c-0.4.86-1.49,2.86-3.13,2.86-1.47,0-2.56-1.78-3.22-3.28-2.33-5.29-6.25-14.14-6.63-15a4.35,4.35,0,0,0-5.75-2.2,0.65,0.65,0,0,0-.34.92c1.77,4,6.07,13.73,8.09,18.31,2.29,5.21,5.53,6.3,7.84,6.3,3.21,0,6-2.11,7.72-5.8,2.29-5,6.81-14.83,8.62-18.79A0.65,0.65,0,0,0,139.89,67.23Z" />
</svg>
