<?xml version="1.0" encoding="utf-8"?>
<!-- Generator: Adobe Illustrator 17.1.0, SVG Export Plug-In . SVG Version: 6.00 Build 0)  -->
<!DOCTYPE svg PUBLIC "-//W3C//DTD SVG 1.1//EN" "http://www.w3.org/Graphics/SVG/1.1/DTD/svg11.dtd">
<svg version="1.1" id="Layer_1" xmlns="http://www.w3.org/2000/svg" xmlns:xlink="http://www.w3.org/1999/xlink" x="0px" y="0px"
	 viewBox="0 0 600 600" enable-background="new 0 0 600 600" xml:space="preserve">
<g>
	<polygon class="bar" fill="#FFDD00" points="538.3,240 530.1,240 530.1,217 69.9,217 69.9,240 61.7,240 61.7,208.8 538.3,208.8 	"/>
	<path class="text" fill="#FFFFFF" d="M132.7,264.2c-3.9-5.5-10.1-8.9-18-8.9c-13.3,0-21.6,9.6-21.6,23c0,13.2,8.4,22.8,21.6,22.8
		c11.7,0,20.7-7.6,21.5-18.5h-29.9v-8h30.6l7.6,7.6c-0.8,14.5-13.7,26.9-29.7,26.9c-17.3,0-30.2-13.7-30.2-31
	c0-17.3,12.9-31,30.6-31c9.6,0,17.8,4.3,23.4,11.2L132.7,264.2z"/>
	<path class="text" fill="#FFFFFF" d="M196.1,248.9h8.4v58.7h-6.4l-1.2-3.2l-0.4-0.4l-0.4,0.4c-2.4,2.8-8.8,4.8-13.3,4.8
		c-11.3,0-18.5-8-18.5-19.3v-41h8.4v41.4c0,6,4,10.9,11.3,10.9c6.8,0,12.1-4.8,12.1-10.9L196.1,248.9L196.1,248.9z"/>
	<path class="text" fill="#FFFFFF" d="M229.5,248.9h35.4v8H238v16.9h26.1v8H238v17.7h26.9v8h-35.4V248.9z"/>
	<path class="text" fill="#FFFFFF" d="M291.4,248.9l15.2,46.9l15.2-46.9h8.5L311,307.6h-8.8l-19.3-58.7H291.4z"/>
	<path class="text" fill="#FFFFFF" d="M360.9,248.9h8.8l20.1,58.7h-8.4l-5.2-15.3h-21.8l-5.1,15.3h-8.4L360.9,248.9z M357.1,284.3h16.3l-8.1-24.1
		L357.1,284.3z"/>
	<path class="text" fill="#FFFFFF" d="M449.2,306v1.6h-9.6L419,281.8h-1.6v25.7H409v-58.7h20.9c9.6,0,18.1,6,18.1,16.5c0,10.1-9,16.5-18.6,16.5
		L449.2,306z M430.3,273.8c4.8,0,9.2-3.2,9.2-8.4s-4.4-8.4-9.2-8.4h-12.9v16.9H430.3z"/>
	<path class="text" fill="#FFFFFF" d="M486.5,248.9h8.8l20.1,58.7H507l-5.2-15.3H480l-5.1,15.3h-8.4L486.5,248.9z M482.7,284.3H499l-8.1-24.1
		L482.7,284.3z"/>
</g>
</svg>
